<svg xmlns="http://www.w3.org/2000/svg" width="24" height="24" viewBox="0 0 1024 1024">
  <path fill="#317AF7" d="M621.1 98.2h60.5l178.9 178.9v61L621.1 98.2z m-22 215.9c0 25.1 20.3 45.4 45.3 45.4h216v522.7c0 24.1-19.5 43.6-43.6 43.6H207.1c-24.1 0-43.6-19.5-43.6-43.6V141.8c0-24.1 19.5-43.6 43.6-43.6h392v215.9zM294.2 664.4h457.3c12 0 21.8-9.7 21.8-21.8 0-12-9.7-21.8-21.8-21.8H294.2c-12 0-21.8 9.7-21.8 21.8 0 12.1 9.8 21.8 21.8 21.8z m0-130.6h370.2c12 0 21.8-9.8 21.8-21.8s-9.7-21.8-21.8-21.8H294.2c-12 0-21.8 9.7-21.8 21.8 0 12 9.8 21.8 21.8 21.8z m0-130.7h196c12 0 21.8-9.7 21.8-21.8 0-12-9.7-21.8-21.8-21.8h-196c-12 0-21.8 9.8-21.8 21.8 0 12.1 9.8 21.8 21.8 21.8z m196-174.2h-196c-12 0-21.8 9.7-21.8 21.8 0 12 9.7 21.8 21.8 21.8h196c12 0 21.8-9.7 21.8-21.8 0-12.1-9.7-21.8-21.8-21.8z"/>
</svg>